<svg clip-rule="evenodd" fill-rule="evenodd" stroke-linejoin="round" viewBox="0 0 180 180" xmlns="http://www.w3.org/2000/svg"><path d="m0 0h180v180h-180z" fill="#2e2a24"/><g transform="matrix(.90625002 0 0 .90625002 8.670139 10.94442)"><g stroke="#000" stroke-width="2.85872"><path d="m87.367419 36.403392c.441639-14.017283-4.280323-22.281314-17.854771-27.740337-3.858379 13.496265 12.070487 25.940356 17.854771 27.740337z" fill="#d1d3d4"/><path d="m124.18046 60.158827c.44165-11.510083-2.46542-16.155653-4.64736-19.477499-2.21356-3.098639-7.52518-7.968611-14.0513-8.17272-6.17161-.193366-7.655877 3.218001-13.349447 3.4239-.933411-10.367787 6.891367-16.057178 6.891367-16.057178s-2.139564-3.024039-3.909703-3.76289c-2.545993 2.262508-9.553739 9.809173-7.932206 19.520469-5.2388-1.001448-8.936636-3.999821-14.439823-2.917209-7.49713 1.475316-13.677101 6.008089-17.199475 15.95453-3.521778 9.947037 1.243156 21.551414 2.279219 24.865501 1.036659 3.317072 8.70388 17.405375 14.713162 19.478689 6.00809 2.07392 6.009879 1.13931 9.221913-.10324 3.212629-1.243158 8.08081-3.522375 15.23179-.931622 7.146803 2.589562 8.079023 3.210242 12.533023.309742 4.45757-2.899899 10.25797-11.913524 11.60378-14.504277 1.34699-2.589559 2.07272-3.937158 2.4887-5.283561 4.33045-2.161051.16889-2.027364.56636-12.342633z" fill="#d1d3d4"/><path d="m135.8129 144.27923a10.742584 10.742584 0 0 0 10.78077-10.74138c.001-10.90552.001-27.75765.001-38.69301a10.742584 10.742584 0 0 0 -10.74251-10.742583h-8.85546a2.387241 2.387241 0 0 1 -2.38724-2.387241v-5.627922h-69.84459l.176058 82.486936a2.3878378 2.3878378 0 0 0 1.104099 2.00826c3.110575 1.80118 13.082678 5.22209 34.020571 5.22209 21.380722 0 30.938052-4.57992 33.674422-6.64786a2.3747079 2.3747079 0 0 0 .85821-1.82743c.0114-2.28281.0114-7.57233.0114-10.69723a2.3866442 2.3866442 0 0 1 2.43678-2.38664c2.62656.037 5.77354.0424 8.76655.0341zm-11.20333-47.62904c0-.79137.31453-1.55051.87374-2.11032a2.9864385 2.9864385 0 0 1 2.11032-.87373h7.60216c.79137 0 1.55051.31452 2.11033.87373a2.9864385 2.9864385 0 0 1 .87372 2.11032v34.7254a2.9864385 2.9864385 0 0 1 -.87372 2.11032 2.9864385 2.9864385 0 0 1 -2.11033.87374h-7.60216a2.9864385 2.9864385 0 0 1 -2.11032-.87374 2.9864385 2.9864385 0 0 1 -.87374-2.11032z" fill="#fff" fill-rule="nonzero"/></g><path d="m61.650269 75.394795v73.996115c0 .85403.455963 1.64302 1.19541 2.06914 3.020458 1.43951 11.782826 4.87534 27.145318 4.87534 15.464543 0 23.966713-4.17468 26.813483-5.89529a2.3794825 2.3794825 0 0 0 1.09038-1.99991c.007-9.81215.007-73.045395.007-73.045395z" fill="#fbb040" stroke-width=".59681"/><path d="m69.918478 87.928097v57.183833" fill="none" stroke="#ffdb96" stroke-linecap="round" stroke-linejoin="miter" stroke-width="6.5781"/><path d="m101.69982 90.579439c0-1.193621-.70245-2.618804-1.856083-3.334379a9.9870227 9.9870227 0 0 1 -4.143057-4.953527c-15.27297.513855-29.213263-2.16821-36.23593-4.061889a58.617509 58.617509 0 0 0 -5.473346-1.271207c-4.203335-.833743-7.39806-4.525015-7.39806-8.962896 0-4.884891 3.875685-8.854276 8.718203-9.027948.934009-5.166586 5.443507-9.088823 10.879255-9.088823 6.11253 0 11.067249 4.955912 11.067249 11.067845 0 1.286127-.232159 2.517347-.635007 3.666804l.03284.0054c1.364905-4.268984 5.361146-7.362251 10.083706-7.362251 4.692123 0 8.666878 3.056862 10.055059 7.28586a11.144238 11.144238 0 0 1 -.06029-1.161989c0-6.357225 5.152861-11.510084 11.508891-11.510084 5.14569 0 9.50062 3.37735 10.97415 8.034261l1.00323-.261404a9.0016889 9.0016889 0 0 1 4.4355-1.166763c4.9947 0 9.04406 4.049356 9.04226 9.042867 0 4.575148-3.39644 8.355941-7.80568 8.959317a13.332144 13.332144 0 0 0 -2.91899.757949c-2.6206.98772-5.30028 1.806544-8.00741 2.482134a9.9428587 9.9428587 0 0 1 -1.1393 3.718724 12.367699 12.367699 0 0 0 -1.42041 6.718293c-.001.140847.005.878505.005 1.020545 0 2.957792-2.39679 4.757772-5.35697 4.757772a5.3539847 5.3539847 0 0 1 -5.35401-5.354623z" fill="#fff" stroke="#000" stroke-linecap="round" stroke-width="2.85872"/></g></svg>