<svg clip-rule="evenodd" fill-rule="evenodd" stroke-linecap="round" stroke-linejoin="round" viewBox="0 0 220 316" xmlns="http://www.w3.org/2000/svg"><path d="m35.871 225.956c-32.985-34.216-28.666-75.104 8.641-88.201" fill="none" stroke="#000" stroke-width="11.334"/><g transform="matrix(1.55472 0 0 1.55472 72.532 6.99)"><path d="m16.148 29.062c4.439-13.829-1.83-22.514-10.889-23.992" fill="none" stroke="#000" stroke-width="2.99"/><circle cx="5.26" cy="5.07" r="4.993"/></g><g stroke="#000"><path d="m60.556 96.264a8.82 8.82 0 0 1 -8.821 8.82 8.82 8.82 0 0 1 -8.82-8.82v-11.996a8.82 8.82 0 0 1 8.82-8.82 8.82 8.82 0 0 1 8.821 8.82zm98.084 0a8.821 8.821 0 0 1 -17.642 0v-11.996a8.821 8.821 0 0 1 17.641 0v11.996zm-52.924-58.568c4.871 0 8.822 3.95 8.822 8.82s-3.95 8.82-8.822 8.82h-11.994a8.82 8.82 0 1 1 0-17.64z" fill="#fff" stroke-width="4.649"/><path d="m148.055 126.118c0 7.48-4.48 13.541-10.003 13.541h-75.963c-5.523 0-10.001-6.062-10.001-13.541v-64.648c0-7.48 4.478-13.542 10.001-13.542h75.963c5.523 0 10.003 6.064 10.003 13.542v64.647z" fill="#a1a3a6" stroke-width="4.913"/><circle cx="80.745" cy="74.432" fill="#fff" r="13.408" stroke-width="4.213"/></g><circle cx="80.745" cy="74.432" r="6.351" stroke-width="1.555"/><circle cx="120.966" cy="74.432" fill="#fff" r="13.408" stroke="#000" stroke-width="4.213"/><circle cx="120.965" cy="74.432" r="6.351" stroke-width="1.555"/><path d="m156.745 141.99c12.438 3.627 66.38 10.838 39.433 64.734" fill="none" stroke="#000" stroke-width="11.334"/><path d="m192.223 211.83c-10.408-8.428-21.185 6.481-24.21 9.751-3.027 3.265-7.625-1.6-5.832-4.192 1.787-2.589 20.437-25.994 34.836-12.044z" stroke="#000" stroke-width="5.659"/><path d="m172.719 272.823a18 18 0 0 0 18.064-17.998c.002-18.273.002-46.51.002-64.833a18 18 0 0 0 -18-18h-14.838a4 4 0 0 1 -4-4v-9.43h-117.03l.295 138.213a4.001 4.001 0 0 0 1.85 3.365c5.212 3.018 21.921 8.75 57.004 8.75 35.825 0 51.839-7.674 56.424-11.14a3.979 3.979 0 0 0 1.438-3.061c.019-3.825.019-12.688.019-17.924a3.999 3.999 0 0 1 4.083-4c4.401.063 9.674.072 14.689.058zm-18.772-79.806c0-1.326.527-2.598 1.464-3.536a5.004 5.004 0 0 1 3.536-1.464h12.738c1.326 0 2.598.527 3.536 1.464a5.004 5.004 0 0 1 1.464 3.536v58.185a5.004 5.004 0 0 1 -1.464 3.536 5.004 5.004 0 0 1 -3.536 1.464h-12.738a5.004 5.004 0 0 1 -3.536-1.464 5.004 5.004 0 0 1 -1.464-3.536z" fill="#fff" fill-rule="nonzero" stroke="#000" stroke-linecap="butt" stroke-width="4.79"/><path d="m48.454 157.402v123.986c0 1.43.764 2.753 2.003 3.467 5.061 2.412 19.743 8.169 45.484 8.169 25.912 0 40.158-6.995 44.928-9.878a3.987 3.987 0 0 0 1.827-3.351c.011-16.441.011-122.393.011-122.393z" fill="#fbb040"/><path d="m35.521.249v112.816" fill="none" stroke="#ffdb96" stroke-linejoin="miter" stroke-width="11.96" transform="matrix(1 0 0 .84931 26.787 178.19)"/><path d="m35.235 225.916c17.81-12.99 31.211 13.707 32.584 17.704s-2.794 6.618-5.123 5.034c-2.329-1.583-11.81-25.727-21.887-16.907-10.075 8.82 2.778 21.979 5.483 25.517 2.705 3.539-2.876 7.24-5.123 5.033-2.245-2.205-22.131-24.568-5.934-36.38zm161.782-20.571c15.834 15.337-8.192 33.09-11.895 35.121-3.703 2.032-6.997-1.622-5.833-4.19 1.162-2.566 23.34-16.019 12.934-24.446z" stroke="#000" stroke-width="5.659"/><path d="m60.744 115.244c2.473-4.998 7.628-8.088 13.574-8.44 7.167-.424 11.167 4.197 11.167 3.787 0-11.012 8.928-19.938 19.941-19.938 11.014 0 19.936 8.926 19.936 19.938 0 .113 4.241-4.967 10.965-4.783 7.924.217 14.355 6.427 14.355 14.355 0 4.103-4.236 10.728-4.236 10.728a15.073 15.073 0 0 1 7.432-1.957 15.09 15.09 0 0 1 9.59 3.42 15.119 15.119 0 0 1 5.708 11.852c0 7.666-5.691 14-13.079 15.012a22.339 22.339 0 0 0 -4.891 1.27c-4.391 1.655-8.881 3.027-13.417 4.159a16.66 16.66 0 0 1 -1.909 6.23 20.723 20.723 0 0 0 -2.38 11.258c-.002.236.007 1.472.007 1.71 0 4.956-4.016 7.972-8.976 7.972a8.971 8.971 0 0 1 -8.971-8.972c0-2-1.177-4.388-3.11-5.587a16.564 16.564 0 0 1 -1.3-.873 16.842 16.842 0 0 1 -5.746-7.424c-25.55.846-48.861-3.64-60.612-6.81a98.218 98.218 0 0 0 -9.171-2.13 15.439 15.439 0 0 1 -7.83-4.15 15.112 15.112 0 0 1 -4.713-10.985c0-8.245 6.581-14.952 14.781-15.15-6.472-5.417.795-18.647 11.537-19.147 5.566-.26 11.348 4.655 11.348 4.655z" fill="#fff" stroke="#000" stroke-width="4.79"/></svg>