<svg clip-rule="evenodd" fill-rule="evenodd" stroke-linejoin="round" viewBox="0 0 198 253" xmlns="http://www.w3.org/2000/svg"><path d="m194.742 172.188c-8.051-15.926-27.131-43.057-34.189-54.137-7.301-11.463-17.465-4.88-34.354 7.164l-6.773-10.223v-63.494h-52.617v63.494l-60.491 95.792c-2.008 2.453-3.245 5.763-3.245 9.413 0 6.203 3.555 11.431 8.425 13.109 4.705 2.369 35.903 17.11 84.037 17.11 49.344 0 79.79-15.696 83.111-17.493 4.377-1.996 7.48-6.936 7.48-12.727 0-3.562-1.182-6.795-3.1-9.229l-8.647-13.049c9.39-4.708 24.932-16.695 20.363-25.73zm-28.271 13.801-32.404-48.902c7.818-5.419 15.234-12.578 19.977-5.049 5.203 8.262 19.105 28.533 25.694 40.021 1.723 3.007-6.226 9.594-13.267 13.93z" fill="#fff" fill-rule="nonzero" stroke="#000" stroke-width="4.79"/><path d="m167.846 215.163c0-2.678-.953-5.107-2.499-6.938l-56.086-90.078-.094-68.449h-31.853l.097 68.449-54.431 89.938c-1.619 1.846-2.617 4.332-2.617 7.078 0 4.662 2.866 8.594 6.789 9.854 3.789 1.783 28.926 12.862 67.706 12.862 39.758 0 64.286-11.8 66.965-13.149 3.524-1.501 6.023-5.213 6.023-9.567z" fill="#fbb040"/><path d="m42.473 211.348 46.608-88.249v-75.653" fill="none" stroke="#ffdb96" stroke-linecap="round" stroke-linejoin="miter" stroke-width="10.28"/><g fill="#ffdb96" transform="translate(84 141)"><circle cx="23.096" cy="7.766" r="6.82"/><path d="m11.678 34.785a5.469 5.469 0 0 0 -5.47-5.469 5.47 5.47 0 1 0 5.47 5.469zm29.72-11.484a4.12 4.12 0 0 0 -8.238 0 4.119 4.119 0 0 0 8.238 0z"/></g><path d="m86.915 54.579c-8.709.159-16.544.173-18.998-.153-.712-.094-2.461-.322-2.786-.322-7.191 0-13.023-5.831-13.023-13.022 0-7.192 5.831-13.023 13.023-13.023.845 0 1.67.087 2.472.241a9.561 9.561 0 0 1 -3.15-7.094 9.596 9.596 0 0 1 9.597-9.596c4.007 0 7.44 2.463 8.876 5.956 1.277-8.2 8.345-14.481 16.905-14.481 9.464 0 17.134 7.668 17.134 17.131 0 2.635-.61 5.119-1.672 7.348a12.976 12.976 0 0 1 4.631-.863c7.193 0 13.021 5.83 13.021 13.021 0 7.082-5.658 12.83-12.7 13.003-.88.11-1.554.344-2.796.671a16.757 16.757 0 0 1 -.747 1.579 20.723 20.723 0 0 0 -2.38 11.257c-.002.236.007 1.472.007 1.71 0 4.956-4.016 7.972-8.976 7.972a8.971 8.971 0 0 1 -8.971-8.972c0-2-1.177-4.388-3.11-5.587-.448-.271-5.151-4.434-6.357-6.776z" fill="#fff" stroke="#000" stroke-linecap="round" stroke-width="4.79"/></svg>