<svg clip-rule="evenodd" fill-rule="evenodd" stroke-linejoin="round" viewBox="0 0 1200 630" xmlns="http://www.w3.org/2000/svg"><path d="m0 0h1200v630h-1200z" fill="#2e2a24"/><g fill="#f9d094" transform="matrix(1.5 0 0 1.5 -.000937 -4.293285)"><g font-family="'SFProDisplay-Bold', 'SF Pro Display', '-apple-system'" font-size="33.376" font-weight="700" transform="matrix(.99871735 0 0 .99712703 2243.8134 -16.384242)"><text x="-1891.71" y="307.548">for macOS (or Linux)</text><text x="-1966.62" y="263.491">The missing package manager</text></g><text font-family="'SFProDisplay-Black','SF Pro Display',-apple-system" font-size="35" font-weight="900" transform="scale(2.6666667 2.6624204)" x="96.071999" y="73.397003">Homebrew</text></g><g transform="matrix(3.90321178212 0 0 3.89699645413 5.218421 9.572839)"><path d="m42.522 44.065c.298-9.461-2.889-15.04-12.052-18.724-2.604 9.109 8.148 17.509 12.052 18.724z" fill="#d1d3d4" stroke="#000" stroke-width="1.93"/><path d="m67.371 60.1c.298-7.769-1.665-10.905-3.137-13.147-1.495-2.092-5.08-5.379-9.485-5.517-4.166-.13-5.168 2.172-9.011 2.311-.63-6.998 4.652-10.838 4.652-10.838s-1.444-2.041-2.639-2.54c-1.719 1.527-6.449 6.621-5.354 13.176-3.536-.676-6.032-2.7-9.747-1.969-5.06.996-9.232 4.055-11.609 10.769-2.378 6.714.839 14.547 1.538 16.784.7 2.239 5.875 11.748 9.931 13.148s4.057.769 6.225-.07 5.454-2.377 10.281-.629c4.824 1.748 5.454 2.167 8.46.209 3.009-1.957 6.924-8.041 7.832-9.79.91-1.748 1.399-2.657 1.68-3.566 2.923-1.459.114-1.369.383-8.331z" fill="#d1d3d4" stroke="#000" stroke-width="1.93"/><path d="m75.222 116.88h.026c3.978 0 7.251-3.273 7.251-7.25.001-7.361.001-18.736.001-26.118 0-3.977-3.273-7.251-7.251-7.251h-5.977c-.884 0-1.612-.727-1.612-1.611v-3.799h-47.144l.119 55.678c.001.549.282 1.061.745 1.356 2.099 1.215 8.83 3.524 22.963 3.524 14.432 0 20.883-3.091 22.73-4.487.367-.304.579-.757.579-1.233.008-1.541.008-5.112.008-7.221 0-.884.727-1.611 1.611-1.611h.034c1.773.025 3.897.029 5.917.023zm-7.562-32.149c0-.534.212-1.047.59-1.424.378-.378.89-.59 1.424-.59h5.132c.534 0 1.046.212 1.424.59.378.377.59.89.59 1.424v23.439c0 .534-.212 1.047-.59 1.425-.378.377-.89.589-1.424.59h-5.132c-.534-.001-1.046-.213-1.424-.59-.378-.378-.59-.891-.59-1.425z" fill="#fff" fill-rule="nonzero" stroke="#000" stroke-width="1.93"/><path d="m25.163 70.384v49.946c0 .577.308 1.109.807 1.397 2.039.972 7.953 3.291 18.323 3.291 10.438 0 16.177-2.818 18.099-3.979.458-.296.736-.805.736-1.35.004-6.623.004-49.305.004-49.305z" fill="#fbb040"/><path d="m30.744 78.844v38.598" fill="none" stroke="#ffdb96" stroke-linecap="round" stroke-linejoin="miter" stroke-width="4.47"/><path d="m52.196 80.633c0-.805-.474-1.767-1.253-2.25-1.276-.774-2.26-1.951-2.796-3.344-10.309.347-19.719-1.463-24.459-2.742-1.217-.345-2.45-.631-3.694-.858-2.838-.562-4.994-3.054-4.994-6.05 0-3.297 2.616-5.976 5.885-6.093.63-3.488 3.674-6.135 7.343-6.135 4.126 0 7.47 3.345 7.47 7.47 0 .869-.156 1.7-.428 2.476l.022.003c.921-2.881 3.619-4.969 6.806-4.969 3.167 0 5.85 2.063 6.787 4.918-.027-.261-.04-.523-.04-.785 0-4.291 3.478-7.769 7.768-7.769 3.473 0 6.413 2.28 7.407 5.423l.678-.176c.913-.517 1.944-.788 2.994-.788 3.371 0 6.104 2.733 6.103 6.104 0 3.088-2.293 5.64-5.269 6.047-.674.096-1.335.268-1.97.512-1.769.667-3.578 1.219-5.405 1.675-.089.88-.35 1.733-.769 2.511-.741 1.39-1.074 2.963-.959 4.534-.001.095.003.593.003.689 0 1.997-1.618 3.212-3.616 3.212-1.982 0-3.614-1.632-3.614-3.614z" fill="#fff" stroke="#000" stroke-linecap="round" stroke-width="1.93"/></g></svg>