<svg clip-rule="evenodd" fill-rule="evenodd" stroke-linecap="round" stroke-linejoin="round" viewBox="0 0 190 302" xmlns="http://www.w3.org/2000/svg"><g transform="translate(5.09 4.032)"><g stroke="#000" stroke-width="4.79"><path d="m136.363 50.498c-3.194 20.766-10.383 37.537-12.777 44.725-2.396 7.188-79.863 11.182-79.863 2.396s1.665-46.396 4.027-57.139"/><path d="m136.363 50.498c-2.768 24.466-24.85 42.065-49.316 39.297-24.468-2.767-42.064-24.844-39.297-49.315 2.764-24.466 24.846-42.064 49.313-39.296 24.468 2.766 42.064 24.845 39.3 49.314z"/><path d="m53.307 49.7c1.596-15.173 14.785-39.047 31.944-28.75 19.966 11.98 3.194 39.93-15.974 43.924-19.167 3.995-15.97-15.174-15.97-15.174z" fill="#fff"/><path d="m46.918 48.902c-4.727-.788-44.725 1.596-46.32 7.985-1.601 6.39 35.936 21.564 43.125 22.362 7.188.798 23.16-7.987 23.16-11.979s-15.175-17.567-19.965-18.368z" fill="#fbb040"/></g><circle cx="68.479" cy="48.101" r="7.985"/></g><path d="m166.296 261.004a18 18 0 0 0 18.064-17.998c.002-18.273.002-46.51.002-64.833a18 18 0 0 0 -18-18h-14.838a4 4 0 0 1 -4-4v-9.43h-117.03l.295 138.213a4.001 4.001 0 0 0 1.85 3.365c5.212 3.018 21.92 8.75 57.004 8.75 35.825 0 51.839-7.674 56.424-11.14a3.979 3.979 0 0 0 1.438-3.061c.019-3.825.019-12.688.019-17.924a3.999 3.999 0 0 1 4.083-4c4.4.063 9.674.072 14.689.058zm-18.772-79.806c0-1.326.527-2.598 1.464-3.536a5.004 5.004 0 0 1 3.536-1.464h12.738c1.326 0 2.598.527 3.536 1.464a5.004 5.004 0 0 1 1.464 3.536v58.185a5.004 5.004 0 0 1 -1.464 3.536 5.004 5.004 0 0 1 -3.536 1.464h-12.738a5.004 5.004 0 0 1 -3.536-1.464 5.004 5.004 0 0 1 -1.464-3.536z" fill="#fff" fill-rule="nonzero" stroke="#000" stroke-linecap="butt" stroke-width="4.79"/><path d="m42.03 145.583v123.986c0 1.43.765 2.753 2.004 3.467 5.06 2.412 19.743 8.169 45.484 8.169 25.912 0 40.158-6.995 44.928-9.878a3.987 3.987 0 0 0 1.827-3.351c.01-16.441.01-122.393.01-122.393h-94.251z" fill="#fbb040"/><path d="m35.521.249v112.816" fill="none" stroke="#ffdb96" stroke-linejoin="miter" stroke-width="11.96" transform="matrix(1 0 0 .84931 20.364 166.371)"/><path d="m54.32 103.425c2.474-4.998 7.629-8.088 13.575-8.44 7.167-.424 11.167 4.197 11.167 3.787 0-11.012 8.928-19.938 19.94-19.938 11.015 0 19.937 8.926 19.937 19.938 0 .113 4.24-4.967 10.965-4.783 7.924.217 14.355 6.427 14.355 14.355 0 4.103-4.236 10.728-4.236 10.728a15.073 15.073 0 0 1 7.432-1.957 15.09 15.09 0 0 1 9.59 3.42 15.119 15.119 0 0 1 5.708 11.852c0 7.666-5.691 14-13.08 15.012a22.339 22.339 0 0 0 -4.89 1.27c-4.391 1.655-8.881 3.027-13.417 4.159a16.66 16.66 0 0 1 -1.91 6.23 20.723 20.723 0 0 0 -2.38 11.258c-.001.236.008 1.472.008 1.71 0 4.956-4.016 7.972-8.976 7.972a8.971 8.971 0 0 1 -8.971-8.972c0-2-1.177-4.388-3.11-5.587a16.564 16.564 0 0 1 -1.3-.873 16.842 16.842 0 0 1 -5.746-7.424c-25.55.846-48.861-3.64-60.612-6.81a98.218 98.218 0 0 0 -9.171-2.13 15.439 15.439 0 0 1 -7.83-4.15 15.112 15.112 0 0 1 -4.713-10.985c0-8.245 6.58-14.952 14.78-15.15-6.471-5.417.796-18.647 11.538-19.147 5.566-.26 11.348 4.655 11.348 4.655z" fill="#fff" stroke="#000" stroke-width="4.79"/></svg>